<svg xmlns="http://www.w3.org/2000/svg" xmlns:xlink="http://www.w3.org/1999/xlink" xmlns:sketch="http://www.bohemiancoding.com/sketch/ns" viewBox="0 0 58 72.5" version="1.1" x="0px" y="0px"><title>19 - Paganism (Solid)</title><desc>Created with Sketch.</desc><g stroke="none" stroke-width="1" fill="none" fill-rule="evenodd" sketch:type="MSPage"><g sketch:type="MSLayerGroup" fill="#000000"><path d="M34.026,18 L28.981,1.38 L23.733,18 L34.026,18" sketch:type="MSShapeGroup"/><path d="M27.344,41.963 L18.404,34.873 L12.863,52.421 L27.344,41.963" sketch:type="MSShapeGroup"/><path d="M17.372,31.501 L21.004,20 L2.87,20 L17.372,31.501" sketch:type="MSShapeGroup"/><path d="M36.117,18 L55.827,18 C51.686,7.938 42.047,0.7 30.668,0.051 L36.117,18" sketch:type="MSShapeGroup"/><path d="M23.101,20 L19.049,32.832 L29,40.724 L38.61,33.102 L34.633,20 L23.101,20" sketch:type="MSShapeGroup"/><path d="M39.235,35.159 L30.668,41.954 L44.197,51.503 L39.235,35.159" sketch:type="MSShapeGroup"/><path d="M29.007,43.229 L14.197,53.924 C18.534,56.509 23.595,58 29,58 C34.486,58 39.62,56.468 43.999,53.811 L29.007,43.229" sketch:type="MSShapeGroup"/><path d="M40.92,33.823 L46.476,52.125 C53.471,46.825 58,38.433 58,29 C58,26.276 57.614,23.643 56.909,21.142 L40.92,33.823" sketch:type="MSShapeGroup"/><path d="M21.635,18 L27.303,0.054 C15.937,0.713 6.31,7.946 2.173,18 L21.635,18" sketch:type="MSShapeGroup"/><path d="M16.727,33.543 L1.091,21.142 C0.385,23.643 0,26.276 0,29 C0,38.19 4.302,46.389 10.991,51.706 L16.727,33.543" sketch:type="MSShapeGroup"/><path d="M36.724,20 L40.295,31.765 L55.13,20 L36.724,20" sketch:type="MSShapeGroup"/></g></g></svg>