<svg xmlns="http://www.w3.org/2000/svg" xmlns:xlink="http://www.w3.org/1999/xlink" version="1.1" x="0px" y="0px" viewBox="0 0 60 75" enable-background="new 0 0 60 60" xml:space="preserve"><path fill="#000000" d="M59,21c0.55,0,1-0.45,1-1v-4c0-0.55-0.45-1-1-1H47c-0.55,0-1,0.45-1,1v11H33V14h11c0.55,0,1-0.45,1-1V1  c0-0.55-0.45-1-1-1h-4c-0.55,0-1,0.45-1,1v7h-2V1c0-0.55-0.45-1-1-1h-4c-0.55,0-1,0.45-1,1v7h-2V1c0-0.55-0.45-1-1-1h-4  c-0.55,0-1,0.45-1,1v7h-2V1c0-0.55-0.45-1-1-1h-4c-0.55,0-1,0.45-1,1v12c0,0.55,0.45,1,1,1h11v13H14V16c0-0.55-0.45-1-1-1H1  c-0.55,0-1,0.45-1,1v4c0,0.55,0.45,1,1,1h7v2H1c-0.55,0-1,0.45-1,1v4c0,0.55,0.45,1,1,1h7v2H1c-0.55,0-1,0.45-1,1v4  c0,0.55,0.45,1,1,1h7v2H1c-0.55,0-1,0.45-1,1v4c0,0.55,0.45,1,1,1h12c0.55,0,1-0.45,1-1V33h13v12H16c-0.55,0-1,0.45-1,1v13  c0,0.55,0.45,1,1,1h4c0.55,0,1-0.45,1-1v-8h2v8c0,0.55,0.45,1,1,1h4c0.55,0,1-0.45,1-1v-8h2v8c0,0.55,0.45,1,1,1h4  c0.55,0,1-0.45,1-1v-8h2v8c0,0.55,0.45,1,1,1h4c0.55,0,1-0.45,1-1V46c0-0.55-0.45-1-1-1H33V33h13v11c0,0.55,0.45,1,1,1h12  c0.55,0,1-0.45,1-1v-4c0-0.55-0.45-1-1-1h-7v-2h7c0.55,0,1-0.45,1-1v-4c0-0.55-0.45-1-1-1h-7v-2h7c0.55,0,1-0.45,1-1v-4  c0-0.55-0.45-1-1-1h-7v-2H59z M51,25h7v2h-7c-0.55,0-1,0.45-1,1v4c0,0.55,0.45,1,1,1h7v2h-7c-0.55,0-1,0.45-1,1v4c0,0.55,0.45,1,1,1  h7v2H48V32c0-0.55-0.45-1-1-1H32c-0.55,0-1,0.45-1,1v14c0,0.55,0.45,1,1,1h11v11h-2v-8c0-0.55-0.45-1-1-1h-4c-0.55,0-1,0.45-1,1v8  h-2v-8c0-0.55-0.45-1-1-1h-4c-0.55,0-1,0.45-1,1v8h-2v-8c0-0.55-0.45-1-1-1h-4c-0.55,0-1,0.45-1,1v8h-2V47h11c0.55,0,1-0.45,1-1V32  c0-0.55-0.45-1-1-1H13c-0.55,0-1,0.45-1,1v11H2v-2h7c0.55,0,1-0.45,1-1v-4c0-0.55-0.45-1-1-1H2v-2h7c0.55,0,1-0.45,1-1v-4  c0-0.55-0.45-1-1-1H2v-2h7c0.55,0,1-0.45,1-1v-4c0-0.55-0.45-1-1-1H2v-2h10v11c0,0.55,0.45,1,1,1h15c0.55,0,1-0.45,1-1V13  c0-0.55-0.45-1-1-1H17V2h2v7c0,0.55,0.45,1,1,1h4c0.55,0,1-0.45,1-1V2h2v7c0,0.55,0.45,1,1,1h4c0.55,0,1-0.45,1-1V2h2v7  c0,0.55,0.45,1,1,1h4c0.55,0,1-0.45,1-1V2h2v10H32c-0.55,0-1,0.45-1,1v15c0,0.55,0.45,1,1,1h15c0.55,0,1-0.45,1-1V17h10v2h-7  c-0.55,0-1,0.45-1,1v4C50,24.55,50.45,25,51,25z"/></svg>