<svg xmlns="http://www.w3.org/2000/svg" xmlns:xlink="http://www.w3.org/1999/xlink" version="1.1" x="0px" y="0px" viewBox="0 0 100 125" enable-background="new 0 0 100 100" xml:space="preserve"><g><path d="M48.463,34.23c0,1.97-1.187,3.569-2.652,3.569c-1.465,0-2.653-1.599-2.653-3.569C43.158,32.258,48.463,32.258,48.463,34.23   z"/><path d="M54.572,41.532c-0.188-0.489-0.741-0.732-1.226-0.542c-2.883,1.117-5.868,0.387-6.652-1.63   c-0.002-0.007-0.008-0.011-0.01-0.018c-0.029-0.07-0.077-0.127-0.121-0.189c-0.029-0.039-0.049-0.085-0.083-0.119   c-0.036-0.035-0.083-0.057-0.124-0.086c-0.061-0.044-0.118-0.091-0.186-0.119c-0.006-0.003-0.01-0.008-0.016-0.011   c-0.042-0.016-0.086-0.012-0.129-0.023c-0.072-0.017-0.142-0.038-0.217-0.038c-0.069,0-0.134,0.021-0.2,0.036   c-0.047,0.011-0.095,0.006-0.14,0.024c-0.007,0.002-0.011,0.008-0.018,0.011c-0.068,0.028-0.125,0.075-0.185,0.118   c-0.041,0.029-0.088,0.051-0.124,0.085c-0.036,0.036-0.057,0.084-0.086,0.126c-0.043,0.059-0.089,0.115-0.118,0.182   c-0.003,0.007-0.008,0.011-0.011,0.018c-0.784,2.017-3.768,2.748-6.65,1.631c-0.488-0.189-1.039,0.052-1.228,0.542   c-0.189,0.488,0.053,1.037,0.541,1.226c1.121,0.436,2.26,0.641,3.34,0.641c1.979,0,3.763-0.689,4.88-1.926   c1.117,1.237,2.902,1.926,4.879,1.926c1.082,0,2.221-0.205,3.341-0.641C54.521,42.569,54.763,42.02,54.572,41.532z"/><g><path d="M43.163,30.976c-0.004,0-0.009,0-0.012,0c-0.785-0.007-1.417-0.648-1.411-1.434c0.014-1.735-2.171-3.218-4.772-3.238    c-2.602-0.003-4.807,1.428-4.822,3.162c-0.007,0.782-0.642,1.411-1.422,1.411c-0.004,0-0.008,0-0.012,0    c-0.786-0.006-1.417-0.649-1.411-1.435c0.028-3.312,3.437-5.985,7.614-5.985c0.025,0,0.051,0,0.077,0    c4.214,0.034,7.621,2.773,7.594,6.107C44.579,30.347,43.944,30.976,43.163,30.976L43.163,30.976z"/></g><g><path d="M60.857,30.976c-0.005,0-0.008,0-0.012,0c-0.786-0.007-1.419-0.648-1.412-1.434c0.014-1.735-2.172-3.218-4.771-3.238    c-2.605-0.003-4.81,1.428-4.824,3.162c-0.007,0.782-0.644,1.411-1.423,1.411c-0.003,0-0.008,0-0.012,0    c-0.784-0.006-1.417-0.649-1.411-1.435c0.029-3.333,3.49-6.01,7.69-5.984c4.215,0.034,7.622,2.773,7.596,6.107    C62.273,30.347,61.638,30.976,60.857,30.976L60.857,30.976z"/></g><g><path fill="none" d="M71.861,65.404c0.878-0.051,1.757-0.085,2.526-0.099l1.787-0.026c1.483-0.022,3.144-1.078,3.583-1.971    c0.677-1.371,1.268-4.042,1.268-5.712V34.608c-0.477,0.398-1.039,0.567-1.564,0.567c-0.491,0-1.233-0.151-1.973-0.871    c-0.044-0.042-0.086-0.05-0.117-0.05c-0.775,0.762-1.522,0.92-2.021,0.92c-0.741,0-1.406-0.333-1.882-0.919v15.965    c0,1.664-0.639,3.158-1.649,4.2c-0.006,0.105-0.013,0.205-0.018,0.314C71.498,60.557,71.611,63.714,71.861,65.404z"/><path d="M84.324,29.164c-0.724-2.076-2.019-2.386-2.726-2.386c-1.681,0-2.914,1.531-3.173,3.824    c-0.646-0.178-1.361-0.187-2.009-0.026c-0.298-2.22-1.635-3.798-3.34-3.798c-2.034,0-3.402,2.288-3.402,5.691v16.451    c0.093,0.048,0.197,0.09,0.286,0.141c1.196,0.671,1.938,1.936,1.938,3.307c0,0.438-0.035,1.157-0.079,2.054    c1.011-1.042,1.649-2.536,1.649-4.2V34.255c0.476,0.586,1.141,0.919,1.882,0.919c0.498,0,1.245-0.158,2.021-0.92    c0.031,0,0.073,0.008,0.117,0.05c0.739,0.72,1.481,0.871,1.973,0.871c0.525,0,1.088-0.169,1.564-0.567v22.989    c0,1.67-0.591,4.341-1.268,5.712c-0.439,0.893-2.1,1.948-3.583,1.971l-1.787,0.026c-0.77,0.014-1.648,0.048-2.526,0.099    c0.037,0.261,0.079,0.488,0.121,0.684h0.41c1.799,0,3.315,1.266,3.692,2.987l0.15-0.002c2.823-0.045,5.803-1.801,6.927-4.09    c0.929-1.887,1.658-5.132,1.658-7.387V32.469C84.82,31.252,84.644,30.079,84.324,29.164z"/></g><g><path d="M53.554,86.586c-0.524,0-0.948-0.424-0.948-0.95c0-8.078,4.993-14.651,11.131-14.651c0.525,0,0.949,0.425,0.949,0.949    c0,0.523-0.424,0.948-0.949,0.948c-5.091,0-9.233,5.723-9.233,12.754C54.503,86.162,54.077,86.586,53.554,86.586L53.554,86.586z"/></g><g><path d="M47.829,96.172c-5.377,0-11.174-3.174-15.129-8.286c-6.211-8.021-6.242-18.438-0.068-23.218    c2.032-1.575,4.568-2.407,7.332-2.407c5.376,0,11.175,3.173,15.132,8.28c6.212,8.024,6.24,18.443,0.065,23.225    C53.129,95.339,50.593,96.172,47.829,96.172L47.829,96.172z"/></g><path fill="none" d="M24.006,52.958c-0.446,0.095-0.844,0.26-1.176,0.51c-0.639,0.484-1.055,1.305-1.236,2.347   C22.298,54.776,23.1,53.825,24.006,52.958z"/><path fill="none" d="M37.351,56.695c1.18,1.562,1.971,2.982,2.416,4.344l0.051,0.168c0.364,1.196,0.449,2.346,0.261,3.435   c-0.082,0.476-0.341,0.902-0.725,1.19c-0.479,0.361-1.064,0.554-1.696,0.554c-0.354,0-0.687-0.058-1.001-0.142   c0.235,0.903,0.294,2.039-0.651,2.984c-0.521,0.521-1.203,0.795-1.973,0.795c-0.351,0-0.684-0.056-0.998-0.138   c0.098,0.369,0.159,0.769,0.134,1.184c-0.048,0.769-0.555,1.432-1.285,1.681c-0.778,0.263-1.555,0.396-2.312,0.396   c-2.643,0-5.122-1.58-7.58-4.828c-0.104-0.137-0.195-0.276-0.295-0.414c-0.048,0.81-0.071,1.622-0.071,2.434   c0,2.363,0.649,4.733,1.93,7.047c0.296,0.535,0.317,1.178,0.055,1.729c-0.92,1.949-1.409,4.207-1.409,6.521   c0,5.62,2.557,6.569,8.288,6.569c3.383,0,5.894-0.341,7.157-2.013c0.481-0.636,1.309-0.903,2.07-0.669   c2.609,0.802,5.146,1.207,7.54,1.207c1.933,0,3.933-0.271,5.948-0.81c0.162-0.043,0.325-0.063,0.49-0.063   c0.522,0,1.03,0.217,1.395,0.612c1.402,1.525,4.163,1.735,6.936,1.735c5.731,0,8.287-0.949,8.287-6.569   c0-2.24-0.461-4.438-1.332-6.351c-0.236-0.52-0.226-1.121,0.028-1.632c0.423-0.85,0.79-1.429,1.083-1.893   c0.554-0.878,0.704-1.113,0.704-2.576c0-0.731-0.011-1.088-0.038-1.405h-0.23c-0.941,0-1.8-0.379-2.479-1.096   c-2.156-2.269-2.318-7.897-1.882-16.244c0.017-0.335,0.032-0.645,0.047-0.923c-3.997-1.807-12.004-3.572-18.957-3.572   c-6.21,0-10.935,0.784-14.534,2.124C34.379,53.294,35.959,54.856,37.351,56.695z"/><g><g><path d="M44.391,49.904c-1.113,0-1.953,0.72-1.953,1.676c0,1.005,0.855,1.817,1.76,2.677c0.155,0.146,0.324,0.312,0.498,0.483     c0.4,0.392,1.122,1.101,1.414,1.255c0.289-0.149,1.007-0.843,1.403-1.227c0.174-0.166,0.343-0.329,0.499-0.474     c0.903-0.844,1.756-1.637,1.756-2.642c0-1.106-1.033-1.705-2.005-1.705c-0.538,0-1,0.164-1.34,0.47l-0.319,0.292l-0.318-0.293     C45.431,50.091,44.922,49.904,44.391,49.904L44.391,49.904z"/></g></g><path d="M73.299,77.788c0.801-1.267,1.291-2.164,1.291-4.604c0-1.359-0.042-1.725-0.142-2.492   c-0.033-0.254-0.073-0.565-0.123-1.018c-0.105-0.961-0.919-1.69-1.886-1.69h-1.724c-0.646-0.781-1.261-3.784-0.762-13.348   c0.054-1.005,0.092-1.801,0.092-2.27c0-0.686-0.369-1.316-0.969-1.654c-0.613-0.344-1.377-0.691-2.238-1.036   c0.004-0.049,0.015-0.097,0.015-0.147v-1.775c0-0.673-0.353-1.26-0.88-1.598c3.185-2.79,3.441-7.108,3.441-13.149   c0-4.078-0.812-7.505-2.409-10.291c0.007-0.032,0.021-0.06,0.026-0.094c1.316-7.12,0.49-15.563-5.781-17.901   c-4.972-1.851-10.05,0.938-15.116,8.285C41.07,5.661,35.991,2.872,31.02,4.722c-6.269,2.338-7.098,10.781-5.781,17.901   c0.007,0.039,0.022,0.073,0.031,0.11c-1.59,2.782-2.398,6.204-2.398,10.274c0,6.125,0.499,10.363,3.545,13.094   c-0.584,0.323-0.984,0.938-0.984,1.653v1.343c-0.192-0.013-0.386-0.029-0.576-0.029c-1.636,0-3.129,0.475-4.315,1.375   c-3.078,2.328-3.617,7.004-1.815,11.949c-0.595,2.379-0.895,5.021-0.895,7.945c0,2.721,0.659,5.421,1.96,8.04   c-0.907,2.237-1.384,4.726-1.384,7.258C18.407,96,26.568,96,30.489,96c3.438,0,6.899-0.33,9.273-2.516   c2.568,0.691,5.084,1.04,7.494,1.04c1.933,0,3.914-0.229,5.905-0.685c2.368,1.877,5.64,2.16,8.863,2.16   c3.923,0,12.082,0,12.082-10.364c0-2.443-0.448-4.859-1.301-7.04C72.982,78.288,73.146,78.029,73.299,77.788z M59.925,8.277   c3.296,1.229,4.115,5.906,3.784,10.481c-3.194-2.706-7.744-4.296-13.601-4.779C52.905,10.235,56.48,6.994,59.925,8.277z    M32.345,8.277c3.45-1.284,7.023,1.959,9.821,5.703c-5.859,0.486-10.408,2.08-13.603,4.792   C28.229,14.192,29.046,9.507,32.345,8.277z M46.145,17.598c13.47,0,19.476,4.752,19.476,15.41c0,8.038-0.005,11.664-9.457,12.849   H36.365c-9.689-1.215-9.699-4.958-9.699-12.849C26.666,22.494,32.855,17.598,46.145,17.598z M21.594,55.814   c0.181-1.042,0.597-1.862,1.236-2.347c0.332-0.25,0.729-0.415,1.176-0.51c0.266-0.057,0.546-0.094,0.851-0.094   c1.195,0,2.542,0.423,3.911,1.172c1.947,1.068,3.931,2.798,5.557,4.948c0.883,1.167,1.491,2.226,1.787,3.081   c-0.312-0.083-0.644-0.138-0.996-0.138c-0.771,0-1.457,0.276-1.979,0.798c-0.939,0.94-0.886,2.072-0.655,2.973   c-0.315-0.082-0.647-0.143-1-0.143c-0.769,0-1.451,0.276-1.972,0.798c-0.916,0.915-0.889,2.01-0.674,2.898   c-1.167-0.318-2.424-1.379-3.818-3.223c-0.996-1.314-1.765-2.644-2.329-3.926C21.63,59.7,21.307,57.471,21.594,55.814z    M68.979,79.285c0.871,1.913,1.332,4.11,1.332,6.351c0,5.62-2.556,6.569-8.287,6.569c-2.772,0-5.533-0.21-6.936-1.735   c-0.364-0.396-0.872-0.612-1.395-0.612c-0.165,0-0.328,0.021-0.49,0.063c-2.015,0.539-4.015,0.81-5.948,0.81   c-2.394,0-4.931-0.405-7.54-1.207c-0.762-0.234-1.589,0.033-2.07,0.669c-1.264,1.672-3.774,2.013-7.157,2.013   c-5.731,0-8.288-0.949-8.288-6.569c0-2.314,0.488-4.572,1.409-6.521c0.262-0.552,0.241-1.194-0.055-1.729   c-1.28-2.313-1.93-4.684-1.93-7.047c0-0.812,0.023-1.624,0.071-2.434c0.101,0.138,0.192,0.277,0.295,0.414   c2.458,3.248,4.937,4.828,7.58,4.828c0.757,0,1.534-0.134,2.312-0.396c0.73-0.249,1.237-0.912,1.285-1.681   c0.025-0.415-0.036-0.814-0.134-1.184c0.314,0.082,0.647,0.138,0.998,0.138c0.77,0,1.452-0.274,1.973-0.795   c0.945-0.945,0.886-2.081,0.651-2.984c0.315,0.084,0.648,0.142,1.001,0.142c0.632,0,1.217-0.192,1.696-0.554   c0.384-0.288,0.643-0.715,0.725-1.19c0.188-1.089,0.103-2.238-0.261-3.435l-0.051-0.168c-0.445-1.361-1.235-2.782-2.416-4.344   c-1.392-1.839-2.972-3.401-4.628-4.627c0.623-0.232,1.288-0.444,1.98-0.642h6.802c0.084-1.418,1.29-2.472,2.886-2.472   c0.622,0,1.229,0.184,1.718,0.512C46.573,49.16,47.139,49,47.764,49c1.364,0,2.796,0.854,2.928,2.427h8.884   c2.655,0.609,4.989,1.345,6.637,2.09c-0.015,0.278-0.03,0.588-0.047,0.923c-0.437,8.347-0.274,13.976,1.882,16.244   c0.679,0.717,1.537,1.096,2.479,1.096h0.23c0.027,0.317,0.038,0.674,0.038,1.405c0,1.463-0.15,1.698-0.704,2.576   c-0.293,0.464-0.66,1.043-1.083,1.893C68.754,78.164,68.743,78.766,68.979,79.285z"/></g></svg>